<svg xmlns="http://www.w3.org/2000/svg" xmlns:xlink="http://www.w3.org/1999/xlink" width="600" zoomAndPan="magnify" viewBox="0 0 450 149.999998" height="200" preserveAspectRatio="xMidYMid meet" version="1.0"><defs><g/></defs><g fill="#000000" fill-opacity="1"><g transform="translate(24.845529, 107.309289)"><g><path d="M 62.90625 -42.1875 L 49.03125 -42.1875 C 48.5 -45.757812 46.972656 -48.5625 44.453125 -50.59375 C 41.941406 -52.632812 38.804688 -53.65625 35.046875 -53.65625 C 30.023438 -53.65625 26 -51.8125 22.96875 -48.125 C 19.9375 -44.4375 18.421875 -39.210938 18.421875 -32.453125 C 18.421875 -25.523438 19.945312 -20.257812 23 -16.65625 C 26.050781 -13.050781 30.035156 -11.25 34.953125 -11.25 C 38.609375 -11.25 41.703125 -12.203125 44.234375 -14.109375 C 46.773438 -16.023438 48.375 -18.71875 49.03125 -22.1875 L 62.90625 -22.125 C 62.425781 -18.144531 61.007812 -14.398438 58.65625 -10.890625 C 56.3125 -7.390625 53.128906 -4.550781 49.109375 -2.375 C 45.085938 -0.195312 40.296875 0.890625 34.734375 0.890625 C 28.941406 0.890625 23.769531 -0.414062 19.21875 -3.03125 C 14.664062 -5.65625 11.070312 -9.453125 8.4375 -14.421875 C 5.8125 -19.390625 4.5 -25.398438 4.5 -32.453125 C 4.5 -39.535156 5.828125 -45.554688 8.484375 -50.515625 C 11.148438 -55.484375 14.765625 -59.269531 19.328125 -61.875 C 23.890625 -64.488281 29.023438 -65.796875 34.734375 -65.796875 C 39.742188 -65.796875 44.257812 -64.867188 48.28125 -63.015625 C 52.3125 -61.171875 55.609375 -58.488281 58.171875 -54.96875 C 60.742188 -51.457031 62.320312 -47.195312 62.90625 -42.1875 Z M 62.90625 -42.1875 "/></g></g></g><g fill="#000000" fill-opacity="1"><g transform="translate(91.978639, 107.309289)"><g><path d="M 19.265625 0.921875 C 14.617188 0.921875 10.765625 -0.289062 7.703125 -2.71875 C 4.640625 -5.15625 3.109375 -8.78125 3.109375 -13.59375 C 3.109375 -17.226562 3.960938 -20.082031 5.671875 -22.15625 C 7.378906 -24.226562 9.625 -25.742188 12.40625 -26.703125 C 15.1875 -27.660156 18.179688 -28.289062 21.390625 -28.59375 C 25.617188 -29.007812 28.640625 -29.445312 30.453125 -29.90625 C 32.273438 -30.375 33.1875 -31.394531 33.1875 -32.96875 L 33.1875 -33.15625 C 33.1875 -35.15625 32.554688 -36.703125 31.296875 -37.796875 C 30.035156 -38.898438 28.253906 -39.453125 25.953125 -39.453125 C 23.523438 -39.453125 21.59375 -38.925781 20.15625 -37.875 C 18.71875 -36.820312 17.769531 -35.476562 17.3125 -33.84375 L 4.8125 -34.859375 C 5.75 -39.296875 8.054688 -42.8125 11.734375 -45.40625 C 15.421875 -48.007812 20.179688 -49.3125 26.015625 -49.3125 C 29.628906 -49.3125 33.007812 -48.738281 36.15625 -47.59375 C 39.3125 -46.457031 41.851562 -44.679688 43.78125 -42.265625 C 45.71875 -39.847656 46.6875 -36.703125 46.6875 -32.828125 L 46.6875 0 L 33.875 0 L 33.875 -6.75 L 33.5 -6.75 C 32.3125 -4.488281 30.539062 -2.644531 28.1875 -1.21875 C 25.832031 0.207031 22.859375 0.921875 19.265625 0.921875 Z M 23.140625 -8.40625 C 26.097656 -8.40625 28.523438 -9.265625 30.421875 -10.984375 C 32.328125 -12.703125 33.28125 -14.84375 33.28125 -17.40625 L 33.28125 -22.5625 C 32.75 -22.207031 31.925781 -21.890625 30.8125 -21.609375 C 29.707031 -21.335938 28.523438 -21.097656 27.265625 -20.890625 C 26.015625 -20.691406 24.890625 -20.519531 23.890625 -20.375 C 21.523438 -20.039062 19.617188 -19.375 18.171875 -18.375 C 16.722656 -17.382812 16 -15.941406 16 -14.046875 C 16 -12.179688 16.671875 -10.773438 18.015625 -9.828125 C 19.359375 -8.878906 21.066406 -8.40625 23.140625 -8.40625 Z M 23.140625 -8.40625 "/></g></g></g><g fill="#000000" fill-opacity="1"><g transform="translate(143.770659, 107.309289)"><g><path d="M 5.390625 0 L 5.390625 -48.6875 L 18.484375 -48.6875 L 18.484375 -40.1875 L 18.984375 -40.1875 C 19.867188 -43.207031 21.351562 -45.492188 23.4375 -47.046875 C 25.519531 -48.597656 27.9375 -49.375 30.6875 -49.375 C 31.988281 -49.375 33.195312 -49.210938 34.3125 -48.890625 C 35.4375 -48.578125 36.441406 -48.148438 37.328125 -47.609375 L 33.28125 -36.453125 C 32.644531 -36.765625 31.953125 -37.03125 31.203125 -37.25 C 30.453125 -37.476562 29.613281 -37.59375 28.6875 -37.59375 C 25.957031 -37.59375 23.644531 -36.660156 21.75 -34.796875 C 19.863281 -32.941406 18.910156 -30.523438 18.890625 -27.546875 L 18.890625 0 Z M 5.390625 0 "/></g></g></g><g fill="#000000" fill-opacity="1"><g transform="translate(182.028293, 107.309289)"><g><path d="M 27.3125 18.953125 C 20.769531 18.953125 15.628906 17.660156 11.890625 15.078125 C 8.148438 12.503906 5.878906 9.378906 5.078125 5.703125 L 17.5625 4.03125 C 18.101562 5.332031 19.171875 6.523438 20.765625 7.609375 C 22.367188 8.703125 24.660156 9.25 27.640625 9.25 C 30.578125 9.25 33 8.550781 34.90625 7.15625 C 36.820312 5.769531 37.78125 3.476562 37.78125 0.28125 L 37.78125 -8.625 L 37.203125 -8.625 C 36.316406 -6.613281 34.753906 -4.789062 32.515625 -3.15625 C 30.273438 -1.519531 27.210938 -0.703125 23.328125 -0.703125 C 19.671875 -0.703125 16.347656 -1.554688 13.359375 -3.265625 C 10.367188 -4.972656 7.988281 -7.582031 6.21875 -11.09375 C 4.457031 -14.601562 3.578125 -19.050781 3.578125 -24.4375 C 3.578125 -29.96875 4.476562 -34.570312 6.28125 -38.25 C 8.09375 -41.925781 10.492188 -44.6875 13.484375 -46.53125 C 16.472656 -48.382812 19.742188 -49.3125 23.296875 -49.3125 C 26.023438 -49.3125 28.304688 -48.851562 30.140625 -47.9375 C 31.972656 -47.019531 33.460938 -45.882812 34.609375 -44.53125 C 35.753906 -43.175781 36.617188 -41.832031 37.203125 -40.5 L 37.71875 -40.5 L 37.71875 -48.6875 L 51.125 -48.6875 L 51.125 0.46875 C 51.125 4.507812 50.101562 7.898438 48.0625 10.640625 C 46.019531 13.390625 43.210938 15.460938 39.640625 16.859375 C 36.078125 18.253906 31.96875 18.953125 27.3125 18.953125 Z M 27.609375 -10.84375 C 30.859375 -10.84375 33.375 -12.046875 35.15625 -14.453125 C 36.945312 -16.859375 37.84375 -20.207031 37.84375 -24.5 C 37.84375 -28.769531 36.953125 -32.179688 35.171875 -34.734375 C 33.398438 -37.296875 30.878906 -38.578125 27.609375 -38.578125 C 24.265625 -38.578125 21.722656 -37.265625 19.984375 -34.640625 C 18.242188 -32.023438 17.375 -28.644531 17.375 -24.5 C 17.375 -20.289062 18.25 -16.960938 20 -14.515625 C 21.75 -12.066406 24.285156 -10.84375 27.609375 -10.84375 Z M 27.609375 -10.84375 "/></g></g></g><g fill="#000000" fill-opacity="1"><g transform="translate(238.543098, 107.309289)"><g><path d="M 27.390625 0.953125 C 22.460938 0.953125 18.207031 -0.0976562 14.625 -2.203125 C 11.039062 -4.304688 8.273438 -7.242188 6.328125 -11.015625 C 4.390625 -14.785156 3.421875 -19.164062 3.421875 -24.15625 C 3.421875 -29.175781 4.390625 -33.570312 6.328125 -37.34375 C 8.273438 -41.125 11.039062 -44.0625 14.625 -46.15625 C 18.207031 -48.257812 22.460938 -49.3125 27.390625 -49.3125 C 32.304688 -49.3125 36.554688 -48.257812 40.140625 -46.15625 C 43.722656 -44.0625 46.484375 -41.125 48.421875 -37.34375 C 50.367188 -33.570312 51.34375 -29.175781 51.34375 -24.15625 C 51.34375 -19.164062 50.367188 -14.785156 48.421875 -11.015625 C 46.484375 -7.242188 43.722656 -4.304688 40.140625 -2.203125 C 36.554688 -0.0976562 32.304688 0.953125 27.390625 0.953125 Z M 27.453125 -9.515625 C 30.785156 -9.515625 33.3125 -10.90625 35.03125 -13.6875 C 36.757812 -16.476562 37.625 -20 37.625 -24.25 C 37.625 -28.488281 36.757812 -32.007812 35.03125 -34.8125 C 33.3125 -37.613281 30.785156 -39.015625 27.453125 -39.015625 C 24.046875 -39.015625 21.472656 -37.613281 19.734375 -34.8125 C 18.003906 -32.007812 17.140625 -28.488281 17.140625 -24.25 C 17.140625 -20 18.003906 -16.476562 19.734375 -13.6875 C 21.472656 -10.90625 24.046875 -9.515625 27.453125 -9.515625 Z M 27.453125 -9.515625 "/></g></g></g><g fill="#000000" fill-opacity="1"><g transform="translate(293.314581, 107.309289)"><g><path d="M 5.640625 0 L 5.640625 -64.90625 L 31.625 -64.90625 C 38.789062 -64.90625 44.175781 -63.347656 47.78125 -60.234375 C 51.382812 -57.117188 53.1875 -53.128906 53.1875 -48.265625 C 53.1875 -44.441406 52.078125 -41.351562 49.859375 -39 C 47.640625 -36.644531 44.835938 -35.085938 41.453125 -34.328125 L 41.453125 -33.6875 C 43.921875 -33.582031 46.238281 -32.882812 48.40625 -31.59375 C 50.570312 -30.3125 52.332031 -28.515625 53.6875 -26.203125 C 55.039062 -23.898438 55.71875 -21.144531 55.71875 -17.9375 C 55.71875 -14.488281 54.863281 -11.410156 53.15625 -8.703125 C 51.457031 -6.003906 48.945312 -3.878906 45.625 -2.328125 C 42.3125 -0.773438 38.226562 0 33.375 0 Z M 19.359375 -11.21875 L 30.546875 -11.21875 C 34.398438 -11.21875 37.195312 -11.957031 38.9375 -13.4375 C 40.675781 -14.914062 41.546875 -16.867188 41.546875 -19.296875 C 41.546875 -21.984375 40.585938 -24.179688 38.671875 -25.890625 C 36.765625 -27.609375 34.164062 -28.46875 30.875 -28.46875 L 19.359375 -28.46875 Z M 19.359375 -37.75 L 29.53125 -37.75 C 32.34375 -37.75 34.675781 -38.484375 36.53125 -39.953125 C 38.394531 -41.421875 39.328125 -43.429688 39.328125 -45.984375 C 39.328125 -48.328125 38.5 -50.21875 36.84375 -51.65625 C 35.1875 -53.09375 32.835938 -53.8125 29.796875 -53.8125 L 19.359375 -53.8125 Z M 19.359375 -37.75 "/></g></g></g><g fill="#000000" fill-opacity="1"><g transform="translate(352.301694, 107.309289)"><g><path d="M 5.390625 0 L 5.390625 -48.6875 L 18.890625 -48.6875 L 18.890625 0 Z M 12.171875 -54.953125 C 10.179688 -54.953125 8.46875 -55.625 7.03125 -56.96875 C 5.59375 -58.3125 4.875 -59.921875 4.875 -61.796875 C 4.875 -63.679688 5.59375 -65.289062 7.03125 -66.625 C 8.46875 -67.957031 10.179688 -68.625 12.171875 -68.625 C 14.171875 -68.625 15.890625 -67.957031 17.328125 -66.625 C 18.765625 -65.289062 19.484375 -63.679688 19.484375 -61.796875 C 19.484375 -59.921875 18.765625 -58.3125 17.328125 -56.96875 C 15.890625 -55.625 14.171875 -54.953125 12.171875 -54.953125 Z M 12.171875 -54.953125 "/></g></g></g><g fill="#000000" fill-opacity="1"><g transform="translate(376.581191, 107.309289)"><g><path d="M 18.890625 -64.90625 L 18.890625 0 L 5.390625 0 L 5.390625 -64.90625 Z M 18.890625 -64.90625 "/></g></g></g><g fill="#000000" fill-opacity="1"><g transform="translate(400.860688, 107.309289)"><g><path d="M 18.890625 -64.90625 L 18.890625 0 L 5.390625 0 L 5.390625 -64.90625 Z M 18.890625 -64.90625 "/></g></g></g></svg>